PathFileType	4	(X/Y/Z)	Patient4_TMGait_0pt4_03_right_15.trc.trc
DataRate	CameraRate	NumFrames	NumMarkers	Units	OrigDataRate	OrigDataStartFrame	OrigNumFrames
72.916666666667	72.916666666667	4	33	mm	72.916666666667	53	       141
Frame#	Time	Sacral			L.Shoulder			Chest			R.Shoulder			Neck			R.ASIS			L.ASIS			R.Thigh.Superior			R.Thigh.Lateral			R.Thigh.Inferior			R.Patella			L.Thigh.Superior			L.Thigh.Lateral			L.Thigh.Inferior			L.Patella			L.Shank.Superior			L.Shank.Lateral			L.Shank.Inferior			R.Shank.Superior			R.Shank.Lateral			R.Shank.Inferior			R.Heel			R.Midfoot.Superior			R.Midfoot.Lateral			R.Toe			L.Heel			L.Midfoot.Lateral			L.Midfoot.Superior			L.Toe			L.Elbow			L.Wrist			R.Elbow			R.Wrist			
		X1	Y1	Z1	X2	Y2	Z2	X3	Y3	Z3	X4	Y4	Z4	X5	Y5	Z5	X6	Y6	Z6	X7	Y7	Z7	X8	Y8	Z8	X9	Y9	Z9	X10	Y10	Z10	X11	Y11	Z11	X12	Y12	Z12	X13	Y13	Z13	X14	Y14	Z14	X15	Y15	Z15	X16	Y16	Z16	X17	Y17	Z17	X18	Y18	Z18	X19	Y19	Z19	X20	Y20	Z20	X21	Y21	Z21	X22	Y22	Z22	X23	Y23	Z23	X24	Y24	Z24	X25	Y25	Z25	X26	Y26	Z26	X27	Y27	Z27	X28	Y28	Z28	X29	Y29	Z29	X30	Y30	Z30	X31	Y31	Z31	X32	Y32	Z32	X33	Y33	Z33	

53	19.453142857143	836.615835124219	1008.566702219870	534.700140278161	1009.512340717178	1435.878078603651	340.515749000249	1128.556580320447	1364.094198783459	488.739719208339	1066.957886277208	1436.609164673797	672.042726442211	1010.645690176346	1496.375413904596	497.398250312912	1074.352370462639	940.148555568216	629.587285691469	1036.093868662491	966.342700685955	359.015876169816	1101.832155682520	736.881756550409	594.805447054483	1019.953516113020	629.958161388547	659.744194843467	1088.759990661682	575.841322885807	574.209646323091	1084.707703007820	488.183490373366	579.742359320096	1122.422289579385	788.433968007810	377.927220933947	1079.377265213005	662.171634336862	296.085593344409	1189.107769126332	606.605962496454	350.535499620305	1212.872742736250	528.365322858110	338.402726192420	1171.292024464236	453.886644500632	328.639849397728	1057.506538990357	358.217058417883	287.467904629893	1109.741778833437	233.078321407881	329.841351324981	1051.399417205532	400.299794030239	586.701999002727	976.890620963018	299.264825013249	648.025941154757	1011.026437136915	203.429063335223	581.757040649174	870.592990158187	42.834647961976	550.198710063793	1040.095135684637	96.033282302738	589.283079676574	952.600010097424	37.051076308681	627.090523105788	1160.856126072743	43.909013626139	619.586948314322	975.742242357123	88.879723555063	379.281592706070	1034.778481605323	78.626487752323	288.706949443972	1127.982915939852	130.361952755179	300.983388096819	1240.602468043112	66.681785201729	251.356871290638	930.859178135577	1093.401393853361	221.913830010468	977.110444673105	836.774097803336	187.198681022531	1094.230822226014	1094.985708280765	808.201053641195	1298.978147730019	946.861856943356	754.047693767168	
54	19.466857142857	835.961063219793	1009.371604580369	536.105188835122	1009.261973711032	1435.801513828122	340.651407100971	1129.061701266197	1363.474563732993	488.018667339679	1069.192876224421	1436.381904350331	671.762316965756	1011.634492089485	1496.375153942075	497.331571120620	1073.802856981303	939.866858076857	629.322574495634	1034.096237819520	966.391622003425	358.975522938088	1099.227472814646	736.172963895545	594.624490084571	1016.704050375735	629.890802644680	660.032246839300	1084.510418797361	575.224920109855	574.243876913017	1079.733455750628	487.868293872492	579.903419268091	1119.293120725356	788.291420383056	378.506099276849	1077.014154854968	662.570080364673	295.890078372368	1185.741272312655	606.750199606253	352.079657017836	1210.871575815573	530.547375860753	339.428472847472	1172.998116397517	456.013664228668	328.858982115557	1065.702137261673	353.844158943378	286.095170569155	1125.306681422536	231.461203526599	328.325445341233	1046.349792547778	400.105451656545	586.896221531091	971.762287513281	299.181447682306	648.224347296364	1005.687746030800	203.349658098466	581.877100486681	865.095129413930	42.796788173859	550.292672532288	1034.576181869032	95.986106424071	589.288919266528	947.075278950798	37.021581061060	627.118773178477	1155.317363691228	43.854820047094	619.643797384060	1000.216980842342	78.494336062033	376.231964751999	1060.541572525028	72.437989492223	286.035268379136	1150.399601982645	129.799769420901	299.051744289499	1267.243330996387	73.405999197928	250.016263405078	924.942107417167	1094.632566884266	222.611625360675	964.278370655991	836.975886825906	188.374993149744	1097.772440538686	1095.281912999711	808.135071106758	1306.243345834483	955.050691143955	749.179427149692	
55	19.480571428571	835.320280455035	1010.106896950648	537.216339289036	1009.171631849795	1435.671929553327	340.569384002507	1129.578969019464	1362.786669532432	487.180744588248	1071.279020104234	1436.070501966830	671.306772618388	1012.645099184654	1496.310255510623	497.070045310504	1073.190958372602	939.565579109466	628.970721027986	1032.244112304267	966.344451334665	358.802316963316	1096.668645274549	735.448467870621	594.479596306278	1013.425044024501	629.805585769688	660.237653668841	1080.296021219887	574.602628229732	574.258577310815	1074.767222568623	487.535396726513	580.000509071980	1116.141557220572	787.882503670758	379.097177064554	1074.643449024535	662.800433304122	295.577794288702	1182.260336135638	606.588296895266	353.572713556866	1208.671222472675	532.439932420267	340.564296348957	1174.367156954276	458.005650744134	329.277842228501	1073.736691253054	350.038374309851	284.509583193553	1139.821114502576	230.675063348922	327.093884503710	1041.336812574079	399.913358538742	587.042681696335	966.645403914344	299.112056069103	648.401044186745	1000.359830207765	203.275391399049	581.983105796553	859.589978653780	42.764003544601	550.378018465386	1029.059754998550	95.937572539554	589.289470081570	941.548400123079	36.988160815845	627.135007701949	1149.774664679049	43.802401374987	619.695246683240	1023.189157798837	70.156402386759	372.916548693164	1085.112075194269	67.770804601079	283.570577174649	1171.481390387161	130.182760027582	297.744657706318	1292.130378138164	80.548234936136	250.298212235128	919.103339409593	1095.900461197767	223.218916830953	952.271529276872	837.430867784761	189.857123488155	1101.270137206227	1095.403670758405	807.664331292221	1313.229101677963	963.453362047055	743.982726143630	
56	19.494285714286	834.700796650832	1010.774653036688	538.025167772004	1009.214839096634	1435.498839251106	340.268594458283	1130.090667919529	1362.060573355237	486.229480149983	1073.191696725643	1435.712274668482	670.676169586039	1013.652050587025	1496.199851948343	496.608037051106	1072.527859288704	939.253573804676	628.542311202349	1030.556867037795	966.232439482570	358.495710136716	1094.160764877496	734.717425164748	594.345668824766	1010.122862338106	629.713609016214	660.347173888240	1076.126173412244	573.979406814842	574.241331295693	1069.819360433645	487.187707231952	580.019071461015	1113.096739627957	787.313482148826	379.658140997825	1072.344077788337	662.893828825385	295.189924872387	1178.847154736272	606.214021740862	354.889082801166	1206.401997436052	534.060450267795	341.741937595472	1175.451951856194	459.847364144125	329.851012020859	1081.403486291978	346.875915912653	282.825694743652	1152.994245254368	230.631587041468	326.181243935286	1036.365645121482	399.729935260959	587.130140782941	961.540133143352	299.064832215316	648.549244735495	995.042267021439	203.208015833015	582.070374711340	854.076250815944	42.741582765170	550.450971270274	1023.546887511006	95.892003578924	589.290313457986	936.018709142719	36.952268664500	627.137710679677	1144.229064944735	43.751832033868	619.741424806394	1044.110471075371	63.832487686657	369.549151220135	1107.887004069655	64.530532221564	281.446419192774	1190.779548620026	131.340761835981	297.077271749837	1314.785723409375	87.771657776186	252.068421112237	913.425689834104	1097.181483823967	223.762226477392	941.110450004827	838.051370458455	191.586290942507	1104.736815838293	1095.380193829401	806.764641792500	1319.906175821534	972.036689623380	738.499572639244	
